<svg width="795" height="110" viewBox="0 0 795 110" fill="none" xmlns="http://www.w3.org/2000/svg">
<path d="M191.851 66.5911V83.1402H183.044V74.3928H148.468V33.0201H157.984V66.5911H176.425V33.0201H185.94V66.5911H191.851ZM235.873 33.0201V74.3928H226.357V40.8218H207.68V74.3928H198.164V33.0201H235.873ZM283.837 33.0201V74.3928H274.321V40.8218H255.644V74.3928H246.128V33.0201H283.837ZM307.817 58.4939L316.151 46.9095H324.425L316.328 58.4939L324.425 70.0191H316.151L307.817 58.4939ZM321.174 58.4939L329.508 46.9095H337.783L329.685 58.4939L337.783 70.0191H329.508L321.174 58.4939ZM373.089 52.8199C375.611 53.5685 377.541 54.79 378.881 56.4843C380.221 58.1786 380.891 60.267 380.891 62.7493C380.891 66.4138 379.492 69.2705 376.694 71.3194C373.936 73.3684 369.976 74.3928 364.814 74.3928H344.423V33.0201H363.691C368.498 33.0201 372.242 33.946 374.921 35.7979C377.6 37.6499 378.94 40.2898 378.94 43.7179C378.94 45.7668 378.428 47.5793 377.403 49.1554C376.379 50.6921 374.941 51.9136 373.089 52.8199ZM353.939 50.1602H362.864C364.952 50.1602 366.528 49.7465 367.592 48.919C368.656 48.0522 369.188 46.7913 369.188 45.1364C369.188 43.5209 368.636 42.2797 367.533 41.4128C366.469 40.546 364.913 40.1125 362.864 40.1125H353.939V50.1602ZM364.46 67.3003C368.952 67.3003 371.198 65.5272 371.198 61.981C371.198 58.553 368.952 56.8389 364.46 56.8389H353.939V67.3003H364.46ZM408.204 75.1021C403.909 75.1021 400.027 74.1761 396.56 72.3242C393.132 70.4723 390.433 67.9308 388.463 64.6998C386.532 61.4294 385.567 57.7649 385.567 53.7064C385.567 49.648 386.532 46.0032 388.463 42.7722C390.433 39.5018 393.132 36.9406 396.56 35.0887C400.027 33.2368 403.909 32.3108 408.204 32.3108C412.498 32.3108 416.36 33.2368 419.788 35.0887C423.216 36.9406 425.915 39.5018 427.885 42.7722C429.855 46.0032 430.84 49.648 430.84 53.7064C430.84 57.7649 429.855 61.4294 427.885 64.6998C425.915 67.9308 423.216 70.4723 419.788 72.3242C416.36 74.1761 412.498 75.1021 408.204 75.1021ZM408.204 66.9457C410.646 66.9457 412.853 66.3941 414.823 65.2908C416.793 64.1481 418.33 62.572 419.433 60.5625C420.576 58.553 421.147 56.2676 421.147 53.7064C421.147 51.1453 420.576 48.8599 419.433 46.8504C418.33 44.8408 416.793 43.2844 414.823 42.1812C412.853 41.0385 410.646 40.4672 408.204 40.4672C405.761 40.4672 403.554 41.0385 401.584 42.1812C399.614 43.2844 398.057 44.8408 396.915 46.8504C395.811 48.8599 395.26 51.1453 395.26 53.7064C395.26 56.2676 395.811 58.553 396.915 60.5625C398.057 62.572 399.614 64.1481 401.584 65.2908C403.554 66.3941 405.761 66.9457 408.204 66.9457ZM470.251 66.7093V74.3928H438.216V33.0201H469.482V40.7036H447.732V49.6874H466.941V57.1345H447.732V66.7093H470.251ZM515.929 33.0201V74.3928H506.354V57.43H487.559V74.3928H477.985V33.0201H487.559V49.3327H506.354V33.0201H515.929ZM564.24 33.0201V74.3928H554.665V57.43H535.87V74.3928H526.295V33.0201H535.87V49.3327H554.665V33.0201H564.24ZM574.606 33.0201H584.121V59.9715L603.862 33.0201H612.846V74.3928H603.389V47.5005L583.649 74.3928H574.606V33.0201ZM639.164 57.7255H632.545V74.3928H623.029V33.0201H632.545V49.7465H639.401L650.276 33.0201H660.383L646.848 52.9972L660.796 74.3928H649.921L639.164 57.7255ZM669.21 74.8657C667.594 74.8657 666.235 74.314 665.132 73.2107C664.028 72.1075 663.477 70.7284 663.477 69.0735C663.477 67.3792 664.028 66.0198 665.132 64.9953C666.235 63.9314 667.594 63.3995 669.21 63.3995C670.825 63.3995 672.185 63.9314 673.288 64.9953C674.391 66.0198 674.943 67.3792 674.943 69.0735C674.943 70.7284 674.391 72.1075 673.288 73.2107C672.185 74.314 670.825 74.8657 669.21 74.8657ZM699.986 33.0201C703.651 33.0201 706.823 33.6308 709.502 34.8523C712.221 36.0738 714.309 37.8075 715.767 40.0534C717.225 42.2994 717.954 44.9591 717.954 48.0325C717.954 51.0665 717.225 53.7261 715.767 56.0115C714.309 58.2574 712.221 59.9912 709.502 61.2126C706.823 62.3947 703.651 62.9858 699.986 62.9858H691.653V74.3928H682.078V33.0201H699.986ZM699.454 55.184C702.331 55.184 704.518 54.5733 706.015 53.3518C707.512 52.0909 708.261 50.3178 708.261 48.0325C708.261 45.7077 707.512 43.9346 706.015 42.7131C704.518 41.4522 702.331 40.8218 699.454 40.8218H691.653V55.184H699.454ZM760.7 33.0201L743.087 65.7636C741.393 68.9159 739.344 71.2997 736.941 72.9152C734.576 74.5307 731.996 75.3385 729.198 75.3385C727.031 75.3385 724.785 74.8657 722.46 73.92L724.765 66.6502C726.42 67.1624 727.799 67.4186 728.902 67.4186C730.085 67.4186 731.148 67.1427 732.094 66.5911C733.04 66.0001 733.907 65.0938 734.695 63.8723L735.049 63.3995L718.737 33.0201H728.962L739.955 55.2431L751.303 33.0201H760.7ZM761.528 70.0191L769.626 58.4939L761.528 46.9095H769.803L778.137 58.4939L769.803 70.0191H761.528ZM774.886 70.0191L782.983 58.4939L774.886 46.9095H783.16L791.494 58.4939L783.16 70.0191H774.886Z" fill="white"/>
<g clip-path="url(#clip0_926_15)">
<path d="M55.0725 109.526C85.3171 109.526 109.835 85.0074 109.835 54.7628C109.835 24.5181 85.3171 0 55.0725 0C24.8278 0 0.309692 24.5181 0.309692 54.7628C0.309692 85.0074 24.8278 109.526 55.0725 109.526Z" fill="url(#paint0_linear_926_15)"/>
<path d="M55.2803 17.4982L63.4009 42.3273H58.3932L55.2803 32.6662L51.9366 43.0241L53.0749 44.6792H92.9849L32.0653 88.787L40.2276 63.8132L44.2596 66.7387L41.1452 76.2123L78.1866 49.3908H49.7871L46.4114 44.5652L55.2803 17.4982Z" fill="#F54848"/>
<path d="M43.8235 44.7173L47.2133 49.5021H32.7669L53.4518 64.4064L49.3856 67.4001L17.8074 44.7173H43.8235Z" fill="#F8F8F8"/>
<path d="M57.3409 73.2421L61.5285 70.1676L69.414 75.9057L66.3868 66.515L70.5073 63.5118L78.7276 88.787L57.3409 73.2421Z" fill="#F8F8F8"/>
</g>
<defs>
<linearGradient id="paint0_linear_926_15" x1="0.309692" y1="0" x2="109.835" y2="109.526" gradientUnits="userSpaceOnUse">
<stop stop-color="#011A32"/>
<stop offset="1" stop-color="#005CC9"/>
</linearGradient>
<clipPath id="clip0_926_15">
<rect width="109.526" height="109.526" fill="white" transform="translate(0.309692)"/>
</clipPath>
</defs>
</svg>
