<svg width="930" height="225" viewBox="0 0 930 225" fill="none" xmlns="http://www.w3.org/2000/svg">
<path d="M255.851 122.967V139.517H247.044V130.769H212.468V89.3964H221.984V122.967H240.425V89.3964H249.94V122.967H255.851ZM299.873 89.3964V130.769H290.357V97.1981H271.68V130.769H262.164V89.3964H299.873ZM347.837 89.3964V130.769H338.321V97.1981H319.644V130.769H310.128V89.3964H347.837ZM371.817 114.87L380.151 103.286H388.425L380.328 114.87L388.425 126.395H380.151L371.817 114.87ZM385.174 114.87L393.508 103.286H401.783L393.685 114.87L401.783 126.395H393.508L385.174 114.87ZM437.089 109.196C439.611 109.945 441.541 111.166 442.881 112.861C444.221 114.555 444.891 116.643 444.891 119.126C444.891 122.79 443.492 125.647 440.694 127.696C437.936 129.745 433.976 130.769 428.814 130.769H408.423V89.3964H427.691C432.498 89.3964 436.242 90.3224 438.921 92.1743C441.6 94.0262 442.94 96.6662 442.94 100.094C442.94 102.143 442.428 103.956 441.403 105.532C440.379 107.068 438.941 108.29 437.089 109.196ZM417.939 106.537H426.864C428.952 106.537 430.528 106.123 431.592 105.295C432.656 104.429 433.188 103.168 433.188 101.513C433.188 99.8972 432.636 98.656 431.533 97.7892C430.469 96.9223 428.913 96.4889 426.864 96.4889H417.939V106.537ZM428.46 123.677C432.952 123.677 435.198 121.904 435.198 118.357C435.198 114.929 432.952 113.215 428.46 113.215H417.939V123.677H428.46ZM472.204 131.478C467.909 131.478 464.027 130.552 460.56 128.701C457.132 126.849 454.433 124.307 452.463 121.076C450.532 117.806 449.567 114.141 449.567 110.083C449.567 106.024 450.532 102.38 452.463 99.1486C454.433 95.8781 457.132 93.317 460.56 91.465C464.027 89.6131 467.909 88.6872 472.204 88.6872C476.498 88.6872 480.36 89.6131 483.788 91.465C487.216 93.317 489.915 95.8781 491.885 99.1486C493.855 102.38 494.84 106.024 494.84 110.083C494.84 114.141 493.855 117.806 491.885 121.076C489.915 124.307 487.216 126.849 483.788 128.701C480.36 130.552 476.498 131.478 472.204 131.478ZM472.204 123.322C474.646 123.322 476.853 122.77 478.823 121.667C480.793 120.524 482.33 118.948 483.433 116.939C484.576 114.929 485.147 112.644 485.147 110.083C485.147 107.522 484.576 105.236 483.433 103.227C482.33 101.217 480.793 99.6608 478.823 98.5575C476.853 97.4148 474.646 96.8435 472.204 96.8435C469.761 96.8435 467.554 97.4148 465.584 98.5575C463.614 99.6608 462.057 101.217 460.915 103.227C459.811 105.236 459.26 107.522 459.26 110.083C459.26 112.644 459.811 114.929 460.915 116.939C462.057 118.948 463.614 120.524 465.584 121.667C467.554 122.77 469.761 123.322 472.204 123.322ZM534.251 123.086V130.769H502.216V89.3964H533.482V97.0799H511.732V106.064H530.941V113.511H511.732V123.086H534.251ZM579.929 89.3964V130.769H570.354V113.806H551.559V130.769H541.985V89.3964H551.559V105.709H570.354V89.3964H579.929ZM628.24 89.3964V130.769H618.665V113.806H599.87V130.769H590.295V89.3964H599.87V105.709H618.665V89.3964H628.24ZM638.606 89.3964H648.121V116.348L667.862 89.3964H676.846V130.769H667.389V103.877L647.649 130.769H638.606V89.3964ZM703.164 114.102H696.545V130.769H687.029V89.3964H696.545V106.123H703.401L714.276 89.3964H724.383L710.848 109.374L724.796 130.769H713.921L703.164 114.102ZM733.21 131.242C731.594 131.242 730.235 130.69 729.132 129.587C728.028 128.484 727.477 127.105 727.477 125.45C727.477 123.755 728.028 122.396 729.132 121.372C730.235 120.308 731.594 119.776 733.21 119.776C734.825 119.776 736.185 120.308 737.288 121.372C738.391 122.396 738.943 123.755 738.943 125.45C738.943 127.105 738.391 128.484 737.288 129.587C736.185 130.69 734.825 131.242 733.21 131.242ZM763.986 89.3964C767.651 89.3964 770.823 90.0071 773.502 91.2286C776.221 92.4501 778.309 94.1838 779.767 96.4298C781.225 98.6757 781.954 101.335 781.954 104.409C781.954 107.443 781.225 110.102 779.767 112.388C778.309 114.634 776.221 116.368 773.502 117.589C770.823 118.771 767.651 119.362 763.986 119.362H755.653V130.769H746.078V89.3964H763.986ZM763.454 111.56C766.331 111.56 768.518 110.95 770.015 109.728C771.512 108.467 772.261 106.694 772.261 104.409C772.261 102.084 771.512 100.311 770.015 99.0894C768.518 97.8286 766.331 97.1981 763.454 97.1981H755.653V111.56H763.454ZM824.7 89.3964L807.087 122.14C805.393 125.292 803.344 127.676 800.941 129.292C798.576 130.907 795.996 131.715 793.198 131.715C791.031 131.715 788.785 131.242 786.46 130.296L788.765 123.027C790.42 123.539 791.799 123.795 792.902 123.795C794.085 123.795 795.148 123.519 796.094 122.967C797.04 122.376 797.907 121.47 798.695 120.249L799.049 119.776L782.737 89.3964H792.962L803.955 111.619L815.303 89.3964H824.7ZM825.528 126.395L833.626 114.87L825.528 103.286H833.803L842.137 114.87L833.803 126.395H825.528ZM838.886 126.395L846.983 114.87L838.886 103.286H847.16L855.494 114.87L847.16 126.395H838.886Z" fill="white"/>
<g clip-path="url(#clip0_804_66)">
<path d="M119.072 165.902C149.317 165.902 173.835 141.384 173.835 111.139C173.835 80.8945 149.317 56.3763 119.072 56.3763C88.8278 56.3763 64.3097 80.8945 64.3097 111.139C64.3097 141.384 88.8278 165.902 119.072 165.902Z" fill="url(#paint0_linear_804_66)"/>
<path d="M119.28 73.8745L127.401 98.7036H122.393L119.28 89.0426L115.937 99.4005L117.075 101.056H156.985L96.0653 145.163L104.228 120.19L108.26 123.115L105.145 132.589L142.187 105.767H113.787L110.411 100.942L119.28 73.8745Z" fill="#F54848"/>
<path d="M107.824 101.094L111.213 105.878H96.7669L117.452 120.783L113.386 123.776L81.8074 101.094H107.824Z" fill="#F8F8F8"/>
<path d="M121.341 129.618L125.529 126.544L133.414 132.282L130.387 122.891L134.507 119.888L142.728 145.163L121.341 129.618Z" fill="#F8F8F8"/>
</g>
<defs>
<linearGradient id="paint0_linear_804_66" x1="64.3097" y1="56.3763" x2="173.835" y2="165.902" gradientUnits="userSpaceOnUse">
<stop stop-color="#011A32"/>
<stop offset="1" stop-color="#005CC9"/>
</linearGradient>
<clipPath id="clip0_804_66">
<rect width="109.526" height="109.526" fill="white" transform="translate(64.3097 56.3763)"/>
</clipPath>
</defs>
</svg>
