<svg width="1053" height="225" viewBox="0 0 1053 225" fill="none" xmlns="http://www.w3.org/2000/svg">
<rect y="0.845703" width="1053" height="224" rx="34.767" fill="#00417C"/>
<path d="M264.234 93.0955V106.14H257.293V99.2451H230.039V66.6336H237.539V93.0955H252.075V66.6336H259.576V93.0955H264.234ZM292.699 86.8062C292.699 86.8993 292.652 87.5516 292.559 88.7629H273.598C273.939 90.3158 274.747 91.5426 276.02 92.4433C277.294 93.344 278.878 93.7943 280.772 93.7943C282.077 93.7943 283.226 93.608 284.22 93.2353C285.245 92.8315 286.192 92.2104 287.062 91.3718L290.928 95.5647C288.568 98.2668 285.12 99.6178 280.586 99.6178C277.76 99.6178 275.259 99.0743 273.085 97.9872C270.911 96.8691 269.234 95.3317 268.054 93.3751C266.874 91.4184 266.283 89.1977 266.283 86.713C266.283 84.2594 266.858 82.0542 268.007 80.0975C269.187 78.1098 270.787 76.5724 272.806 75.4853C274.856 74.3672 277.138 73.8082 279.654 73.8082C282.108 73.8082 284.328 74.3362 286.316 75.3922C288.304 76.4481 289.857 77.97 290.975 79.9578C292.124 81.9144 292.699 84.1973 292.699 86.8062ZM279.701 79.3055C278.055 79.3055 276.673 79.7714 275.554 80.7032C274.436 81.6349 273.753 82.9083 273.505 84.5234H285.85C285.602 82.9394 284.919 81.6815 283.8 80.7498C282.682 79.7869 281.316 79.3055 279.701 79.3055ZM298.27 74.1809H305.491V83.9643H316.392V74.1809H323.66V99.2451H316.392V89.881H305.491V99.2451H298.27V74.1809ZM351.675 80.1441H343.196V99.2451H335.975V80.1441H327.496V74.1809H351.675V80.1441ZM370.317 73.8082C372.647 73.8082 374.759 74.3517 376.653 75.4387C378.579 76.4947 380.085 78.0011 381.172 79.9578C382.259 81.8834 382.803 84.1351 382.803 86.713C382.803 89.2909 382.259 91.5581 381.172 93.5148C380.085 95.4404 378.579 96.9468 376.653 98.0338C374.759 99.0898 372.647 99.6178 370.317 99.6178C367.118 99.6178 364.603 98.6084 362.77 96.5896V108.283H355.502V74.1809H362.444V77.0693C364.245 74.8952 366.87 73.8082 370.317 73.8082ZM369.059 93.6546C370.923 93.6546 372.445 93.0334 373.625 91.7911C374.836 90.5177 375.442 88.825 375.442 86.713C375.442 84.601 374.836 82.9239 373.625 81.6815C372.445 80.4081 370.923 79.7714 369.059 79.7714C367.196 79.7714 365.659 80.4081 364.447 81.6815C363.267 82.9239 362.677 84.601 362.677 86.713C362.677 88.825 363.267 90.5177 364.447 91.7911C365.659 93.0334 367.196 93.6546 369.059 93.6546ZM431.372 66.6336V99.2451H423.872V72.7832H409.15V99.2451H401.649V66.6336H431.372ZM450.638 99.6178C447.998 99.6178 445.622 99.0743 443.51 97.9872C441.429 96.8691 439.798 95.3317 438.618 93.3751C437.438 91.4184 436.848 89.1977 436.848 86.713C436.848 84.2283 437.438 82.0076 438.618 80.0509C439.798 78.0942 441.429 76.5724 443.51 75.4853C445.622 74.3672 447.998 73.8082 450.638 73.8082C453.278 73.8082 455.638 74.3672 457.719 75.4853C459.8 76.5724 461.43 78.0942 462.611 80.0509C463.791 82.0076 464.381 84.2283 464.381 86.713C464.381 89.1977 463.791 91.4184 462.611 93.3751C461.43 95.3317 459.8 96.8691 457.719 97.9872C455.638 99.0743 453.278 99.6178 450.638 99.6178ZM450.638 93.6546C452.501 93.6546 454.023 93.0334 455.203 91.7911C456.415 90.5177 457.02 88.825 457.02 86.713C457.02 84.601 456.415 82.9239 455.203 81.6815C454.023 80.4081 452.501 79.7714 450.638 79.7714C448.774 79.7714 447.237 80.4081 446.025 81.6815C444.814 82.9239 444.209 84.601 444.209 86.713C444.209 88.825 444.814 90.5177 446.025 91.7911C447.237 93.0334 448.774 93.6546 450.638 93.6546ZM497.108 93.2819V104.649H490.353V99.2451H472.743V104.649H465.988V93.2819H467.013C468.565 93.2508 469.637 92.3346 470.227 90.5332C470.817 88.7318 471.19 86.1695 471.345 82.8462L471.671 74.1809H493.521V93.2819H497.108ZM477.914 83.3587C477.821 85.9055 477.619 87.9864 477.308 89.6014C477.029 91.2165 476.485 92.4433 475.678 93.2819H486.253V80.1441H478.054L477.914 83.3587ZM529.774 93.2819V104.649H523.019V99.2451H505.409V104.649H498.654V93.2819H499.679C501.232 93.2508 502.303 92.3346 502.893 90.5332C503.483 88.7318 503.856 86.1695 504.011 82.8462L504.337 74.1809H526.187V93.2819H529.774ZM510.58 83.3587C510.487 85.9055 510.285 87.9864 509.974 89.6014C509.695 91.2165 509.151 92.4433 508.344 93.2819H518.919V80.1441H510.72L510.58 83.3587ZM558.713 86.8062C558.713 86.8993 558.667 87.5516 558.574 88.7629H539.612C539.954 90.3158 540.762 91.5426 542.035 92.4433C543.308 93.344 544.892 93.7943 546.787 93.7943C548.091 93.7943 549.241 93.608 550.234 93.2353C551.259 92.8315 552.207 92.2104 553.076 91.3718L556.943 95.5647C554.583 98.2668 551.135 99.6178 546.601 99.6178C543.774 99.6178 541.274 99.0743 539.1 97.9872C536.926 96.8691 535.249 95.3317 534.068 93.3751C532.888 91.4184 532.298 89.1977 532.298 86.713C532.298 84.2594 532.873 82.0542 534.022 80.0975C535.202 78.1098 536.802 76.5724 538.82 75.4853C540.87 74.3672 543.153 73.8082 545.669 73.8082C548.122 73.8082 550.343 74.3362 552.331 75.3922C554.319 76.4481 555.872 77.97 556.99 79.9578C558.139 81.9144 558.713 84.1973 558.713 86.8062ZM545.715 79.3055C544.069 79.3055 542.687 79.7714 541.569 80.7032C540.451 81.6349 539.768 82.9083 539.519 84.5234H551.865C551.616 82.9394 550.933 81.6815 549.815 80.7498C548.697 79.7869 547.33 79.3055 545.715 79.3055ZM579.053 73.8082C581.382 73.8082 583.494 74.3517 585.389 75.4387C587.314 76.4947 588.82 78.0011 589.908 79.9578C590.995 81.8834 591.538 84.1351 591.538 86.713C591.538 89.2909 590.995 91.5581 589.908 93.5148C588.82 95.4404 587.314 96.9468 585.389 98.0338C583.494 99.0898 581.382 99.6178 579.053 99.6178C575.854 99.6178 573.338 98.6084 571.505 96.5896V108.283H564.238V74.1809H571.179V77.0693C572.981 74.8952 575.605 73.8082 579.053 73.8082ZM577.795 93.6546C579.658 93.6546 581.18 93.0334 582.36 91.7911C583.572 90.5177 584.177 88.825 584.177 86.713C584.177 84.601 583.572 82.9239 582.36 81.6815C581.18 80.4081 579.658 79.7714 577.795 79.7714C575.931 79.7714 574.394 80.4081 573.183 81.6815C572.002 82.9239 571.412 84.601 571.412 86.713C571.412 88.825 572.002 90.5177 573.183 91.7911C574.394 93.0334 575.931 93.6546 577.795 93.6546ZM620.69 89.7412H617.196V99.2451H610.021V89.7412H606.527L601.216 99.2451H592.644L600.517 86.2937L593.203 74.1809H600.89L606.434 83.9177H610.021V74.1809H617.196V83.9177H620.736L626.327 74.1809H634.014L626.7 86.2937L634.619 99.2451H626.001L620.69 89.7412ZM649.438 89.7412H645.665V99.2451H638.397V74.1809H645.665V83.9177H649.578L656.38 74.1809H664.114L655.355 86.2005L664.719 99.2451H656.147L649.438 89.7412ZM668.288 74.1809H675.509V89.089L687.715 74.1809H694.377V99.2451H687.156V84.337L674.997 99.2451H668.288V74.1809ZM259.762 123.634V156.245H252.261V129.783H237.539V156.245H230.039V123.634H259.762ZM282.055 130.808C284.385 130.808 286.497 131.352 288.391 132.439C290.317 133.495 291.823 135.001 292.91 136.958C293.997 138.883 294.541 141.135 294.541 143.713C294.541 146.291 293.997 148.558 292.91 150.515C291.823 152.44 290.317 153.947 288.391 155.034C286.497 156.09 284.385 156.618 282.055 156.618C278.856 156.618 276.34 155.608 274.508 153.59V165.283H267.24V131.181H274.182V134.069C275.983 131.895 278.608 130.808 282.055 130.808ZM280.797 150.655C282.661 150.655 284.183 150.033 285.363 148.791C286.574 147.518 287.18 145.825 287.18 143.713C287.18 141.601 286.574 139.924 285.363 138.682C284.183 137.408 282.661 136.771 280.797 136.771C278.934 136.771 277.396 137.408 276.185 138.682C275.005 139.924 274.415 141.601 274.415 143.713C274.415 145.825 275.005 147.518 276.185 148.791C277.396 150.033 278.934 150.655 280.797 150.655ZM299.635 131.181H306.856V146.089L319.062 131.181H325.724V156.245H318.503V141.337L306.343 156.245H299.635V131.181ZM348.742 143.201C350.233 143.666 351.382 144.381 352.189 145.344C353.028 146.306 353.447 147.456 353.447 148.791C353.447 150.375 352.904 151.773 351.817 152.984C350.729 154.164 349.239 155.08 347.344 155.733C345.45 156.385 343.306 156.711 340.915 156.711C338.958 156.711 337.033 156.509 335.138 156.105C333.243 155.702 331.489 155.096 329.874 154.288L331.83 149.21C334.47 150.484 337.39 151.12 340.589 151.12C342.297 151.12 343.633 150.872 344.595 150.375C345.589 149.847 346.086 149.117 346.086 148.185C346.086 147.378 345.745 146.772 345.061 146.368C344.378 145.934 343.384 145.716 342.08 145.716H336.955V141.197H341.427C342.701 141.197 343.679 140.995 344.362 140.592C345.046 140.188 345.387 139.598 345.387 138.821C345.387 138.014 344.953 137.393 344.083 136.958C343.244 136.523 342.033 136.306 340.449 136.306C338.027 136.306 335.387 136.88 332.529 138.029L330.759 132.998C334.237 131.476 337.623 130.715 340.915 130.715C343.182 130.715 345.201 130.995 346.971 131.554C348.773 132.113 350.186 132.936 351.211 134.023C352.236 135.079 352.748 136.321 352.748 137.75C352.748 138.93 352.391 140.001 351.677 140.964C350.962 141.896 349.984 142.641 348.742 143.201ZM371.918 139.194C375.179 139.225 377.648 139.955 379.326 141.384C381.003 142.812 381.841 144.862 381.841 147.533C381.841 150.328 380.894 152.487 378.999 154.009C377.105 155.531 374.418 156.292 370.94 156.292L358.734 156.245V131.181H365.955V139.194H371.918ZM384.543 131.181H391.764V156.245H384.543V131.181ZM370.287 151.12C371.685 151.152 372.757 150.856 373.502 150.235C374.247 149.614 374.62 148.682 374.62 147.44C374.62 146.229 374.247 145.344 373.502 144.785C372.788 144.225 371.716 143.93 370.287 143.899L365.955 143.853V151.12H370.287ZM417.918 143.154C420.868 144.148 422.344 146.136 422.344 149.117C422.344 151.384 421.489 153.139 419.781 154.382C418.073 155.624 415.526 156.245 412.141 156.245H398.77V131.181H411.582C414.719 131.181 417.172 131.755 418.943 132.905C420.713 134.023 421.598 135.607 421.598 137.657C421.598 138.899 421.272 140.001 420.62 140.964C419.999 141.896 419.098 142.626 417.918 143.154ZM405.432 141.477H410.93C413.476 141.477 414.75 140.576 414.75 138.775C414.75 137.004 413.476 136.119 410.93 136.119H405.432V141.477ZM411.535 151.307C414.206 151.307 415.542 150.391 415.542 148.558C415.542 147.595 415.231 146.896 414.61 146.462C413.989 145.996 413.01 145.763 411.675 145.763H405.432V151.307H411.535ZM427.751 131.181H434.972V140.964H445.874V131.181H453.141V156.245H445.874V146.881H434.972V156.245H427.751V131.181ZM460.099 131.181H467.32V146.089L479.526 131.181H486.188V156.245H478.967V141.337L466.807 156.245H460.099V131.181ZM504.215 146.741H500.442V156.245H493.174V131.181H500.442V140.918H504.355L511.157 131.181H518.891L510.132 143.201L519.496 156.245H510.924L504.215 146.741ZM534.032 156.618C531.392 156.618 529.016 156.074 526.904 154.987C524.823 153.869 523.192 152.332 522.012 150.375C520.832 148.418 520.242 146.198 520.242 143.713C520.242 141.228 520.832 139.008 522.012 137.051C523.192 135.094 524.823 133.572 526.904 132.485C529.016 131.367 531.392 130.808 534.032 130.808C536.672 130.808 539.032 131.367 541.113 132.485C543.194 133.572 544.824 135.094 546.005 137.051C547.185 139.008 547.775 141.228 547.775 143.713C547.775 146.198 547.185 148.418 546.005 150.375C544.824 152.332 543.194 153.869 541.113 154.987C539.032 156.074 536.672 156.618 534.032 156.618ZM534.032 150.655C535.895 150.655 537.417 150.033 538.597 148.791C539.809 147.518 540.414 145.825 540.414 143.713C540.414 141.601 539.809 139.924 538.597 138.682C537.417 137.408 535.895 136.771 534.032 136.771C532.168 136.771 530.631 137.408 529.419 138.682C528.208 139.924 527.603 141.601 527.603 143.713C527.603 145.825 528.208 147.518 529.419 148.791C530.631 150.033 532.168 150.655 534.032 150.655ZM571.921 143.154C574.872 144.148 576.347 146.136 576.347 149.117C576.347 151.384 575.493 153.139 573.785 154.382C572.077 155.624 569.53 156.245 566.144 156.245H552.774V131.181H565.585C568.722 131.181 571.176 131.755 572.946 132.905C574.717 134.023 575.602 135.607 575.602 137.657C575.602 138.899 575.276 140.001 574.623 140.964C574.002 141.896 573.102 142.626 571.921 143.154ZM559.436 141.477H564.933C567.48 141.477 568.753 140.576 568.753 138.775C568.753 137.004 567.48 136.119 564.933 136.119H559.436V141.477ZM565.539 151.307C568.21 151.307 569.545 150.391 569.545 148.558C569.545 147.595 569.235 146.896 568.614 146.462C567.992 145.996 567.014 145.763 565.679 145.763H559.436V151.307H565.539ZM593.132 143.713L599.7 134.582H606.223L599.84 143.713L606.223 152.798H599.7L593.132 143.713ZM603.66 143.713L610.229 134.582H616.752L610.369 143.713L616.752 152.798H610.229L603.66 143.713ZM644.581 139.241C646.569 139.831 648.091 140.793 649.147 142.129C650.203 143.465 650.731 145.111 650.731 147.067C650.731 149.956 649.628 152.208 647.423 153.823C645.249 155.438 642.128 156.245 638.059 156.245H621.986V123.634H637.174C640.963 123.634 643.914 124.364 646.026 125.823C648.137 127.283 649.193 129.364 649.193 132.066C649.193 133.681 648.79 135.11 647.982 136.352C647.175 137.563 646.041 138.526 644.581 139.241ZM629.487 137.144H636.522C638.168 137.144 639.41 136.818 640.249 136.166C641.087 135.482 641.506 134.489 641.506 133.184C641.506 131.911 641.072 130.932 640.202 130.249C639.363 129.566 638.137 129.224 636.522 129.224H629.487V137.144ZM637.779 150.655C641.32 150.655 643.09 149.257 643.09 146.462C643.09 143.76 641.32 142.409 637.779 142.409H629.487V150.655H637.779ZM672.26 156.804C668.875 156.804 665.815 156.074 663.082 154.615C660.38 153.155 658.252 151.152 656.7 148.605C655.178 146.027 654.417 143.138 654.417 139.939C654.417 136.74 655.178 133.867 656.7 131.321C658.252 128.743 660.38 126.724 663.082 125.264C665.815 123.804 668.875 123.075 672.26 123.075C675.645 123.075 678.689 123.804 681.391 125.264C684.093 126.724 686.221 128.743 687.774 131.321C689.327 133.867 690.103 136.74 690.103 139.939C690.103 143.138 689.327 146.027 687.774 148.605C686.221 151.152 684.093 153.155 681.391 154.615C678.689 156.074 675.645 156.804 672.26 156.804ZM672.26 150.375C674.186 150.375 675.925 149.94 677.478 149.071C679.031 148.17 680.242 146.928 681.112 145.344C682.012 143.76 682.463 141.958 682.463 139.939C682.463 137.921 682.012 136.119 681.112 134.535C680.242 132.951 679.031 131.724 677.478 130.855C675.925 129.954 674.186 129.504 672.26 129.504C670.334 129.504 668.595 129.954 667.042 130.855C665.489 131.724 664.262 132.951 663.362 134.535C662.492 136.119 662.057 137.921 662.057 139.939C662.057 141.958 662.492 143.76 663.362 145.344C664.262 146.928 665.489 148.17 667.042 149.071C668.595 149.94 670.334 150.375 672.26 150.375ZM721.168 150.189V156.245H695.917V123.634H720.562V129.69H703.418V136.771H718.559V142.641H703.418V150.189H721.168ZM757.173 123.634V156.245H749.626V142.874H734.811V156.245H727.264V123.634H734.811V136.492H749.626V123.634H757.173ZM795.253 123.634V156.245H787.706V142.874H772.891V156.245H765.344V123.634H772.891V136.492H787.706V123.634H795.253ZM803.424 123.634H810.925V144.878L826.485 123.634H833.566V156.245H826.112V135.048L810.552 156.245H803.424V123.634ZM854.311 143.107H849.093V156.245H841.593V123.634H849.093V136.818H854.498L863.07 123.634H871.036L860.368 139.38L871.362 156.245H862.79L854.311 143.107ZM877.994 156.618C876.721 156.618 875.649 156.183 874.78 155.313C873.91 154.444 873.475 153.357 873.475 152.052C873.475 150.717 873.91 149.645 874.78 148.838C875.649 147.999 876.721 147.58 877.994 147.58C879.268 147.58 880.339 147.999 881.209 148.838C882.078 149.645 882.513 150.717 882.513 152.052C882.513 153.357 882.078 154.444 881.209 155.313C880.339 156.183 879.268 156.618 877.994 156.618ZM902.253 123.634C905.142 123.634 907.642 124.115 909.754 125.078C911.897 126.041 913.543 127.407 914.692 129.178C915.842 130.948 916.416 133.044 916.416 135.467C916.416 137.858 915.842 139.955 914.692 141.756C913.543 143.527 911.897 144.893 909.754 145.856C907.642 146.788 905.142 147.254 902.253 147.254H895.685V156.245H888.137V123.634H902.253ZM901.834 141.104C904.101 141.104 905.825 140.623 907.005 139.66C908.186 138.666 908.776 137.268 908.776 135.467C908.776 133.634 908.186 132.237 907.005 131.274C905.825 130.28 904.101 129.783 901.834 129.783H895.685V141.104H901.834ZM950.11 123.634L936.227 149.443C934.892 151.928 933.277 153.807 931.382 155.08C929.519 156.354 927.484 156.991 925.279 156.991C923.571 156.991 921.8 156.618 919.968 155.872L921.785 150.142C923.089 150.546 924.176 150.748 925.046 150.748C925.978 150.748 926.816 150.53 927.562 150.096C928.307 149.63 928.991 148.915 929.612 147.952L929.891 147.58L917.033 123.634H925.093L933.758 141.151L942.703 123.634H950.11ZM950.763 152.798L957.145 143.713L950.763 134.582H957.285L963.854 143.713L957.285 152.798H950.763ZM961.292 152.798L967.674 143.713L961.292 134.582H967.814L974.383 143.713L967.814 152.798H961.292Z" fill="white"/>
<g clip-path="url(#clip0_804_98)">
<path d="M127.764 176.41C162.804 176.41 191.209 148.005 191.209 112.965C191.209 77.9251 162.804 49.5198 127.764 49.5198C92.7244 49.5198 64.3191 77.9251 64.3191 112.965C64.3191 148.005 92.7244 176.41 127.764 176.41Z" fill="url(#paint0_linear_804_98)"/>
<path d="M128.005 69.7922L137.413 98.5579H131.612L128.005 87.3651L124.132 99.3652L125.45 101.283H171.688L101.11 152.383L110.566 123.45L115.237 126.84L111.629 137.815L154.543 106.741H121.641L117.73 101.151L128.005 69.7922Z" fill="#F54848"/>
<path d="M114.732 101.327L118.659 106.87H101.923L125.887 124.138L121.176 127.606L84.5914 101.327H114.732Z" fill="#F8F8F8"/>
<path d="M130.392 134.374L135.243 130.812L144.379 137.46L140.872 126.58L145.646 123.101L155.169 152.383L130.392 134.374Z" fill="#F8F8F8"/>
</g>
<defs>
<linearGradient id="paint0_linear_804_98" x1="64.3191" y1="49.5198" x2="191.209" y2="176.41" gradientUnits="userSpaceOnUse">
<stop stop-color="#011A32"/>
<stop offset="1" stop-color="#0068C9"/>
</linearGradient>
<clipPath id="clip0_804_98">
<rect width="126.89" height="126.89" fill="white" transform="translate(64.3191 49.5198)"/>
</clipPath>
</defs>
</svg>
